<svg width="25" height="30" viewBox="0 0 25 30" fill="none" xmlns="http://www.w3.org/2000/svg">
<path fill-rule="evenodd" clip-rule="evenodd" d="M6.63037 26.7385C6.23394 26.7202 5.23731 26.5352 4.22739 26.2538C3.22533 25.9795 2.54076 25.6132 2.54076 25.6132C2.1641 25.4133 2.02664 25.0979 1.97386 24.772C1.98996 24.7783 1.84625 23.7485 1.84625 21.7563C1.84625 20.244 1.9237 19.4337 1.9591 19.1778C1.99706 18.9083 2.12526 18.6877 2.46734 18.7044C2.80944 18.7214 3.27451 18.7128 4.36826 18.9152C5.67251 19.1622 6.31159 19.3708 6.62179 19.4797C6.90235 19.5822 7.19773 19.8063 7.25479 20.226C7.25479 20.226 7.40587 21.3289 7.40361 23.001C7.40584 24.3545 7.31025 25.6954 7.26677 26.1289C7.22622 26.5305 7.02679 26.7568 6.63037 26.7385ZM12.5354 22.0877C12.5351 21.8485 12.4396 21.6256 12.2558 21.4492L8.8769 18.1345C8.48918 17.7279 8.02784 17.4744 7.46653 17.3561C7.46653 17.3561 6.19177 17.0414 4.29411 16.7232C2.39643 16.4049 1.90086 16.4409 1.90086 16.4409C0.218416 16.4409 0.157783 18.2355 0.140408 18.4167C0.098852 18.8499 0 19.9979 0 21.5959C0 23.4818 0.0802004 24.7886 0.177023 25.5874C0.324205 26.8065 1.26017 27.3781 1.69098 27.5947C1.80018 27.6494 2.96919 28.1444 4.15456 28.5101C4.95345 28.757 6.23362 29.1179 6.83334 29.2127C7.03039 29.2444 8.18883 29.4434 8.73609 28.7177L12.3267 24.0605C12.4755 23.8448 12.5354 23.757 12.5354 23.4269V22.0877ZM20.3829 15.2944C19.8737 15.2427 19.3614 15.2316 18.8504 15.2611L10.7749 16.0174C10.7749 16.0174 10.2396 16.0989 9.93462 16.506C9.69873 16.8209 9.64912 17.0836 9.64912 17.0836C9.75596 17.1898 9.79915 17.2334 9.85802 17.2873L13.0469 20.5413C13.4035 20.8916 13.6105 21.2324 13.6105 21.7424V23.5753C13.6105 23.9012 13.5824 24.175 13.4013 24.4208L11.6911 26.7451L13.4117 27.4129C14.0648 27.6282 14.6712 27.622 15.3528 27.5182L22.7601 25.817C22.7601 25.817 24.0958 25.4614 24.096 24.1921V19.6765C24.096 19.5893 24.0455 19.5144 23.9546 19.5327L19.2248 20.4629C19.0482 20.4987 18.9376 20.65 18.9376 20.8196V23.007C18.9376 23.1377 19.0896 23.243 19.2248 23.2127L20.7068 22.8666C20.7839 22.8453 20.8434 22.902 20.8464 23.007V23.7127C20.8394 23.8579 20.7253 23.9581 20.5647 23.9949L18.8872 24.355C18.8886 24.3498 17.7614 24.6421 17.7614 23.4371V20.6471C17.7614 19.4297 18.6438 19.3064 18.6438 19.3064L23.8516 18.302C23.9872 18.2763 24.096 18.156 24.096 18.0257V16.8893C24.0911 15.6344 22.8801 15.5568 22.8801 15.5568L20.3829 15.2944ZM10.7037 3.45721C12.6407 3.53963 14.1089 5.37985 14.0082 7.61775C13.8964 9.84926 12.2177 11.6292 10.3517 11.5523C8.41516 11.4698 7.01154 9.61158 7.1118 7.37407C7.22354 5.1426 8.83766 3.38032 10.7037 3.45721ZM18.5064 8.69168C18.5858 7.1659 19.674 5.96 20.9586 6.00888C22.1799 6.06377 23.1551 7.35925 23.0897 8.83542C23.011 10.3656 21.9058 11.5256 20.6239 11.4848C19.3994 11.4214 18.4416 10.1727 18.5064 8.69168ZM24.9999 8.8911C24.9965 5.87941 22.7567 3.4577 19.9998 3.4577C18.3906 3.4577 16.9306 4.30982 15.9857 5.57461C15.2598 2.35983 12.5774 -0.00889323 9.36592 2.5099e-05C5.53315 0.0107467 2.45166 3.32389 2.46446 7.40925C2.47728 11.5361 5.57529 14.8891 9.36592 14.8776C9.58424 14.8751 20.0297 14.1731 19.9998 14.1725C23.0103 13.9125 25.0153 11.8328 24.9999 8.8911Z" fill="#FAFAFA"/>
</svg>
