<?xml version="1.0" standalone="no"?>
<!DOCTYPE svg PUBLIC "-//W3C//DTD SVG 20010904//EN"
 "http://www.w3.org/TR/2001/REC-SVG-20010904/DTD/svg10.dtd">
<svg version="1.0" xmlns="http://www.w3.org/2000/svg"
 width="2568.000000pt" height="2568.000000pt" viewBox="0 0 2568.000000 2568.000000"
 preserveAspectRatio="xMidYMid meet">
<metadata>
Created by potrace 1.14, written by Peter Selinger 2001-2017
</metadata>
<g transform="translate(0.000000,2568.000000) scale(0.100000,-0.100000)"
fill="#000000" stroke="none">
<path d="M12420 25600 c0 -3 -37 -4 -82 -3 -46 1 -85 0 -89 -3 -3 -2 -75 -5
-160 -8 -167 -5 -283 -15 -313 -26 -11 -4 -37 -4 -57 0 -21 4 -41 5 -44 2 -3
-3 -15 -6 -28 -7 -76 -5 -277 -28 -303 -34 -16 -4 -40 -4 -53 0 -14 6 -20 5
-16 -1 3 -6 -2 -10 -12 -10 -34 0 -198 -20 -213 -26 -8 -3 -40 -8 -70 -10 -30
-3 -93 -12 -140 -20 -46 -9 -97 -18 -112 -20 -16 -2 -54 -8 -86 -13 -31 -6
-75 -13 -97 -17 -22 -4 -47 -9 -55 -11 -8 -2 -43 -8 -76 -13 -34 -5 -74 -14
-88 -20 -15 -5 -42 -10 -60 -10 -18 0 -36 -3 -40 -7 -3 -4 -14 -8 -24 -9 -9
-1 -51 -9 -92 -18 -41 -9 -95 -21 -120 -26 -54 -11 -500 -124 -550 -140 -19
-5 -48 -13 -65 -16 -16 -3 -32 -8 -35 -12 -3 -4 -14 -8 -25 -10 -23 -3 -112
-28 -170 -47 -22 -7 -82 -26 -132 -41 -51 -16 -93 -32 -93 -36 0 -4 -6 -5 -13
-2 -8 3 -35 -4 -60 -15 -26 -11 -48 -20 -50 -19 -3 2 -76 -21 -117 -37 -66
-25 -75 -28 -82 -27 -5 1 -8 -2 -8 -6 0 -4 -9 -8 -21 -9 -20 -2 -115 -35 -151
-54 -10 -5 -25 -9 -33 -9 -8 0 -15 -5 -15 -11 0 -5 -5 -7 -10 -4 -6 4 -18 1
-26 -6 -9 -7 -23 -14 -32 -15 -26 -4 -106 -34 -117 -45 -5 -5 -15 -9 -23 -9
-8 0 -28 -6 -45 -14 -18 -7 -47 -19 -64 -26 -18 -7 -33 -17 -33 -22 0 -5 -4
-7 -9 -4 -5 3 -31 -4 -57 -16 -27 -12 -51 -23 -54 -23 -3 0 -15 -6 -27 -13
-13 -7 -23 -10 -23 -6 0 3 -6 2 -12 -4 -7 -5 -41 -22 -75 -36 -35 -14 -89 -38
-120 -52 -32 -15 -59 -26 -60 -25 -2 0 -29 -12 -60 -28 -32 -16 -82 -39 -110
-52 -29 -13 -53 -26 -53 -29 0 -3 -10 -6 -21 -7 -12 -1 -29 -9 -38 -17 -10 -9
-25 -16 -33 -16 -9 0 -21 -7 -28 -15 -7 -8 -17 -15 -23 -15 -14 0 -101 -43
-105 -52 -2 -5 -12 -8 -22 -8 -10 0 -25 -6 -32 -12 -7 -7 -35 -24 -63 -37 -27
-14 -53 -29 -57 -35 -4 -6 -8 -7 -8 -3 0 11 -60 -25 -60 -36 0 -4 -5 -5 -10
-2 -6 3 -22 -2 -38 -12 -15 -10 -40 -25 -57 -33 -16 -8 -32 -17 -35 -20 -3 -3
-39 -23 -80 -44 -41 -21 -82 -45 -91 -52 -8 -8 -21 -14 -27 -14 -6 0 -17 -6
-24 -12 -7 -7 -44 -29 -81 -48 -37 -19 -76 -43 -87 -52 -11 -10 -23 -18 -28
-18 -5 0 -15 -7 -22 -15 -7 -9 -15 -13 -18 -11 -2 3 -34 -15 -71 -40 -36 -24
-71 -44 -78 -44 -7 0 -13 -3 -13 -8 0 -4 -20 -18 -45 -32 -25 -14 -45 -27 -45
-30 0 -3 -13 -11 -28 -18 -16 -6 -38 -21 -49 -31 -12 -11 -23 -17 -27 -14 -3
3 -8 -2 -12 -11 -3 -9 -10 -13 -15 -10 -5 3 -9 0 -9 -5 0 -6 -6 -11 -14 -11
-7 0 -25 -11 -39 -24 -14 -13 -28 -21 -31 -18 -3 3 -6 0 -6 -6 0 -7 -6 -12
-14 -12 -7 0 -25 -11 -40 -25 -14 -13 -28 -23 -30 -22 -3 1 -17 -9 -33 -23
-15 -13 -30 -23 -33 -22 -3 0 -15 -8 -28 -19 -13 -11 -34 -25 -48 -31 -13 -6
-24 -15 -24 -20 0 -4 -7 -8 -15 -8 -9 0 -18 -7 -21 -15 -4 -8 -10 -13 -14 -10
-5 3 -12 -1 -17 -8 -4 -7 -52 -44 -106 -81 -53 -37 -103 -73 -110 -80 -6 -6
-29 -22 -49 -35 -21 -12 -38 -28 -38 -33 0 -6 -3 -9 -6 -5 -3 3 -16 -4 -29
-16 -12 -12 -32 -29 -45 -37 -12 -8 -36 -27 -52 -41 -51 -44 -57 -49 -65 -49
-5 0 -15 -9 -23 -19 -7 -11 -17 -18 -21 -15 -5 2 -13 -5 -19 -16 -6 -11 -14
-19 -18 -17 -4 1 -16 -7 -28 -18 -11 -11 -40 -36 -64 -55 -24 -19 -54 -44 -66
-55 -12 -11 -32 -27 -44 -35 -12 -8 -37 -28 -55 -45 -19 -16 -49 -43 -68 -60
-67 -57 -139 -120 -175 -152 -20 -18 -40 -33 -44 -33 -4 0 -8 -7 -8 -15 0 -8
-4 -14 -9 -13 -5 2 -20 -9 -34 -24 -14 -16 -28 -28 -31 -28 -2 0 -34 -29 -70
-65 -36 -35 -66 -63 -66 -60 0 2 -56 -51 -125 -119 -68 -68 -125 -122 -127
-121 -2 2 -14 -12 -28 -31 -14 -18 -31 -34 -37 -34 -7 0 -13 -7 -13 -15 0 -8
-7 -15 -15 -15 -8 0 -15 -4 -15 -9 0 -5 -55 -66 -122 -136 -170 -174 -238
-247 -238 -253 0 -3 -12 -17 -28 -32 -15 -15 -52 -55 -82 -90 -30 -34 -62 -70
-70 -79 -8 -9 -39 -46 -69 -81 -66 -78 -82 -97 -115 -133 -14 -15 -26 -31 -26
-35 0 -4 -8 -15 -17 -23 -19 -16 -32 -32 -98 -114 -21 -28 -42 -52 -45 -55 -3
-3 -18 -24 -34 -47 -16 -24 -33 -43 -37 -43 -5 0 -9 -6 -9 -12 0 -7 -18 -32
-40 -56 -22 -24 -40 -44 -40 -46 0 -3 -145 -202 -197 -271 -5 -5 -21 -29 -37
-52 -16 -24 -33 -43 -37 -43 -5 0 -9 -6 -9 -13 0 -7 -9 -23 -20 -35 -11 -12
-20 -25 -20 -30 0 -4 -8 -17 -18 -28 -29 -33 -122 -173 -122 -184 0 -5 -3 -10
-7 -10 -5 0 -30 -37 -58 -82 -27 -44 -58 -89 -67 -99 -10 -11 -18 -22 -18 -26
0 -5 -20 -39 -45 -76 -25 -38 -45 -73 -45 -78 0 -4 -9 -17 -21 -28 -12 -11
-18 -24 -15 -29 3 -6 0 -12 -7 -15 -6 -3 -21 -22 -32 -43 -10 -22 -28 -52 -40
-69 -25 -37 -40 -63 -57 -95 -7 -14 -39 -69 -70 -122 -32 -53 -58 -99 -58
-102 0 -2 -17 -35 -38 -73 -118 -209 -252 -470 -244 -477 3 -3 0 -6 -6 -6 -7
0 -12 -9 -12 -20 0 -11 -4 -20 -9 -20 -5 0 -13 -10 -17 -22 -4 -13 -30 -72
-59 -133 -99 -207 -125 -265 -125 -280 0 -8 -4 -15 -10 -15 -5 0 -10 -5 -10
-11 0 -6 -7 -27 -16 -47 -9 -21 -25 -57 -36 -82 -11 -25 -26 -59 -34 -76 -9
-17 -16 -37 -18 -45 -1 -8 -15 -40 -29 -73 -15 -32 -27 -64 -27 -70 0 -7 -4
-16 -8 -21 -9 -11 -72 -169 -77 -194 -2 -9 -10 -32 -18 -51 -40 -94 -49 -119
-43 -128 3 -6 2 -12 -4 -14 -5 -1 -21 -39 -36 -83 -15 -44 -30 -89 -35 -100
-12 -28 -75 -214 -84 -250 -9 -33 -9 -33 -17 -55 -10 -25 -34 -102 -51 -160
-9 -30 -30 -102 -47 -158 -18 -57 -29 -106 -26 -110 3 -3 1 -10 -4 -17 -9 -11
-55 -178 -106 -390 -13 -55 -28 -116 -33 -135 -5 -19 -17 -71 -26 -115 -9 -44
-23 -109 -31 -145 -35 -164 -43 -206 -43 -220 0 -8 -6 -44 -14 -80 -14 -61
-25 -126 -61 -345 -18 -111 -37 -240 -42 -280 -1 -16 -4 -32 -5 -35 -1 -3 -1
-8 0 -13 1 -4 -5 -56 -13 -115 -16 -117 -37 -319 -62 -597 -30 -337 -30 -1622
1 -1880 2 -22 10 -110 16 -195 12 -162 16 -205 19 -205 1 0 3 -20 6 -45 11
-124 14 -157 18 -175 8 -43 19 -142 20 -182 0 -24 4 -43 8 -43 5 0 7 -3 6 -7
-2 -12 11 -116 28 -218 8 -49 22 -130 30 -180 8 -49 19 -110 24 -135 5 -25 19
-97 30 -160 12 -63 25 -128 30 -145 5 -16 11 -46 14 -65 6 -47 25 -131 33
-143 4 -6 7 -22 8 -36 2 -24 10 -59 52 -226 18 -74 43 -173 50 -202 3 -13 8
-23 12 -23 3 0 6 -12 7 -27 1 -16 11 -62 23 -103 12 -41 31 -106 42 -145 11
-38 26 -88 33 -110 12 -35 45 -142 53 -170 1 -5 9 -32 16 -59 8 -28 19 -52 26
-54 6 -2 9 -7 6 -12 -4 -7 38 -136 130 -400 14 -41 32 -87 40 -102 8 -14 15
-31 15 -38 0 -7 6 -26 14 -43 7 -18 33 -81 56 -142 42 -107 66 -166 96 -232 8
-17 14 -33 14 -36 0 -3 14 -36 31 -74 16 -37 34 -77 39 -88 5 -11 27 -60 49
-108 23 -49 41 -91 41 -95 0 -8 294 -596 335 -672 20 -36 51 -92 69 -125 18
-33 43 -77 54 -98 12 -20 18 -37 14 -37 -4 0 -2 -4 3 -8 11 -8 42 -52 63 -91
7 -13 54 -93 105 -178 50 -84 101 -170 112 -190 19 -36 25 -44 53 -77 6 -8 12
-17 12 -20 0 -3 21 -38 48 -77 26 -39 52 -79 57 -88 15 -26 88 -135 98 -146 4
-5 22 -32 40 -60 18 -27 46 -69 62 -91 17 -23 37 -52 45 -64 8 -12 30 -42 47
-66 18 -23 33 -48 33 -53 0 -6 4 -11 8 -11 4 0 39 -43 77 -96 39 -53 75 -101
80 -107 6 -7 44 -57 85 -112 41 -55 80 -104 86 -110 17 -16 84 -101 84 -108 0
-3 15 -20 32 -39 18 -19 40 -43 48 -54 23 -30 103 -127 120 -144 8 -9 33 -38
55 -64 22 -27 53 -61 68 -77 16 -16 27 -29 24 -29 -2 0 14 -20 37 -44 23 -23
75 -81 116 -126 41 -46 94 -103 118 -127 23 -24 42 -45 42 -47 0 -6 468 -471
540 -536 33 -30 87 -80 119 -110 130 -120 152 -140 157 -139 2 0 22 -18 44
-41 21 -22 41 -40 45 -40 4 0 20 -14 35 -30 15 -17 31 -30 35 -30 4 0 22 -16
41 -35 19 -20 34 -32 34 -29 0 4 8 -3 19 -14 10 -12 21 -22 25 -22 4 0 20 -12
36 -28 54 -51 80 -73 80 -68 0 3 13 -7 29 -22 40 -38 71 -63 71 -56 0 3 11 -6
24 -20 13 -15 28 -26 34 -26 5 0 12 -7 16 -15 3 -8 10 -15 16 -15 5 0 27 -16
47 -35 20 -19 40 -35 44 -35 3 0 15 -8 27 -17 11 -10 30 -25 42 -33 12 -8 32
-23 43 -34 12 -10 33 -26 47 -34 14 -9 29 -22 33 -29 5 -8 12 -11 17 -8 4 3
10 -2 14 -10 3 -8 11 -15 18 -15 7 0 19 -9 26 -20 7 -12 17 -18 22 -15 6 4 13
0 16 -8 3 -8 21 -23 40 -33 19 -10 34 -22 34 -26 0 -5 7 -8 15 -8 8 0 15 -5
15 -12 0 -6 3 -8 7 -5 3 4 13 -2 20 -13 8 -11 19 -18 24 -15 5 4 9 2 9 -2 0
-5 15 -17 33 -28 17 -10 37 -24 44 -29 34 -30 43 -36 43 -31 0 2 10 -4 23 -15
12 -10 26 -19 31 -19 5 0 12 -4 15 -9 10 -17 219 -151 225 -145 3 4 6 1 6 -6
0 -6 10 -16 23 -21 12 -5 69 -41 127 -79 58 -38 108 -67 113 -64 4 2 7 -1 7
-6 0 -6 5 -11 11 -11 6 0 17 -7 26 -15 8 -8 19 -13 24 -10 5 4 9 1 9 -5 0 -6
14 -16 30 -21 17 -6 30 -14 30 -18 0 -4 22 -18 50 -32 27 -13 50 -27 50 -31 0
-5 4 -8 10 -8 5 0 32 -14 61 -30 28 -17 56 -32 62 -33 7 -1 17 -9 24 -17 7 -8
13 -10 13 -5 0 6 3 6 8 -1 4 -6 48 -32 97 -59 50 -26 96 -52 102 -57 7 -6 13
-7 13 -2 0 5 4 4 8 -1 4 -6 66 -40 137 -75 72 -36 133 -69 136 -73 3 -5 12 -9
20 -10 8 -2 36 -15 63 -30 27 -15 51 -27 53 -27 6 0 189 -86 235 -111 21 -11
42 -18 47 -15 5 3 11 -1 15 -9 3 -8 10 -15 16 -15 6 0 32 -9 58 -21 26 -12 63
-28 82 -36 19 -8 46 -21 60 -28 14 -7 28 -14 32 -14 4 -1 29 -11 55 -22 27
-12 53 -22 58 -23 6 -1 24 -10 42 -19 18 -9 41 -18 51 -20 11 -2 27 -9 36 -16
8 -7 27 -14 41 -15 14 0 25 -4 25 -7 0 -4 35 -19 78 -34 42 -15 82 -31 87 -35
6 -4 21 -11 35 -15 28 -7 184 -62 215 -75 55 -23 198 -71 490 -165 78 -25 274
-84 302 -90 10 -3 50 -14 88 -25 39 -11 79 -22 90 -25 11 -2 45 -11 75 -20 30
-8 73 -20 95 -25 22 -4 69 -16 105 -25 36 -10 74 -19 85 -21 11 -2 38 -8 60
-14 125 -33 621 -132 725 -145 19 -3 69 -11 110 -19 127 -24 415 -65 565 -80
28 -3 61 -7 75 -10 14 -3 81 -10 150 -16 69 -6 143 -13 165 -15 98 -10 474
-33 618 -39 48 -2 90 -6 93 -9 3 -3 18 -2 32 3 15 4 36 4 47 0 11 -4 29 -4 40
0 11 4 31 4 45 0 14 -4 34 -4 45 0 11 4 32 4 47 -1 15 -4 30 -4 33 0 2 5 23 5
45 1 22 -4 40 -4 40 0 0 4 20 4 45 0 25 -4 45 -4 45 -1 0 3 18 6 40 6 22 0 40
-3 40 -6 0 -4 18 -3 40 1 22 4 42 4 45 0 3 -4 23 -4 45 0 22 4 43 4 45 0 3 -4
20 -4 39 0 19 4 40 4 47 -1 7 -4 17 -5 22 -2 11 7 48 10 207 17 68 4 152 8
185 11 33 2 101 7 150 10 50 3 106 8 125 10 19 2 94 9 165 15 72 6 141 13 155
15 25 4 164 20 255 30 28 3 57 8 65 10 8 2 42 7 75 10 33 4 67 8 75 10 8 3 47
9 85 15 39 5 81 12 95 15 14 2 63 11 110 19 47 8 94 16 105 19 11 2 43 8 70
12 28 5 52 9 55 10 6 2 68 14 100 19 48 8 135 27 150 33 8 3 24 7 35 8 50 7
236 49 340 76 22 6 56 15 75 19 94 24 281 73 330 87 89 25 154 45 170 50 8 3
22 7 30 8 30 5 493 154 545 175 11 4 116 43 233 86 116 42 212 81 212 86 0 5
4 7 9 4 5 -3 26 2 47 11 22 9 44 18 49 19 9 2 104 41 185 76 14 6 27 12 30 13
30 8 50 18 50 26 0 5 3 8 8 7 12 -4 106 34 126 51 10 9 20 15 22 13 7 -5 104
32 104 40 0 3 14 9 30 13 17 4 30 11 30 16 0 5 7 9 15 9 15 0 366 166 415 196
14 8 37 20 53 25 15 6 27 15 27 21 0 5 4 7 9 3 5 -3 17 2 25 11 9 8 16 13 16
10 0 -3 15 2 33 12 17 10 75 41 127 68 52 27 97 52 100 55 3 3 26 16 53 29 26
13 47 28 47 33 0 6 3 7 6 4 4 -4 19 2 34 13 16 11 31 20 35 20 10 0 129 73
137 85 5 7 8 7 8 0 0 -7 3 -7 8 0 4 6 24 19 45 30 20 11 37 23 37 28 0 4 4 6
9 3 5 -3 14 1 21 9 7 8 19 15 26 15 8 0 14 4 14 9 0 5 13 13 28 19 16 5 35 16
43 23 8 8 26 20 42 26 15 7 27 17 27 23 0 5 9 10 20 10 11 0 20 4 20 9 0 5 14
14 30 21 17 7 30 16 30 21 0 5 5 9 10 9 13 0 192 119 202 134 5 7 8 7 8 1 0
-5 7 -1 15 9 8 11 15 16 15 12 0 -4 14 4 31 18 17 14 34 26 37 26 4 0 20 11
35 25 15 14 27 23 27 19 0 -6 70 43 80 57 3 3 20 14 38 23 17 9 32 20 32 25 0
5 11 12 25 15 14 4 23 11 20 16 -3 6 0 10 8 10 8 0 22 9 32 20 10 11 24 20 32
20 7 0 13 3 13 8 0 4 20 21 45 37 24 17 45 33 45 38 0 4 5 7 11 7 6 0 26 12
44 28 61 51 75 62 84 62 5 0 11 3 13 8 2 4 23 23 48 42 25 19 49 40 53 47 4 7
14 13 22 13 7 0 15 3 17 8 2 4 23 23 48 42 25 18 52 41 61 49 9 9 31 27 49 41
19 14 46 36 60 50 15 14 39 34 54 44 15 11 42 33 60 50 18 17 52 47 76 66 56
46 114 97 155 137 18 18 36 33 38 33 3 0 28 21 56 48 27 26 89 83 136 127 162
149 715 709 715 723 0 3 18 22 40 43 22 22 40 41 40 44 0 3 21 28 48 56 74 80
84 92 136 155 27 32 56 66 65 74 9 8 36 41 61 74 24 32 50 60 57 63 7 3 13 9
13 15 0 5 21 35 48 66 26 32 58 73 72 91 38 50 73 92 96 117 12 13 20 24 18
27 -2 2 12 21 31 41 19 21 35 40 35 42 0 2 44 63 98 136 55 73 111 152 127
175 15 24 32 43 36 43 5 0 9 6 9 14 0 7 10 24 23 37 12 14 22 27 22 29 1 9 69
105 77 108 4 2 8 8 8 14 0 6 11 26 25 44 14 18 25 37 25 43 0 6 5 11 10 11 6
0 14 8 17 17 4 10 43 74 88 143 45 69 105 166 135 215 30 50 56 92 60 95 3 3
11 16 18 30 6 14 16 32 22 40 19 29 133 225 168 290 19 36 44 81 55 100 54 95
76 140 70 140 -4 0 1 6 11 13 9 7 18 22 19 35 0 12 4 22 8 22 4 0 61 111 129
248 67 136 128 259 136 274 8 14 14 33 14 42 0 9 5 16 10 16 6 0 10 4 10 10 0
5 16 44 35 86 19 41 35 77 35 79 0 3 11 28 24 57 47 102 96 222 96 234 0 7 4
14 8 16 4 2 18 32 31 68 13 36 29 79 36 95 44 104 125 318 125 330 0 4 7 21
15 38 28 61 190 564 188 584 0 7 3 13 7 13 4 0 10 10 13 22 6 29 28 107 61
221 14 48 26 91 26 97 0 5 5 21 11 37 7 15 13 39 15 53 2 14 10 50 19 80 23
79 32 114 54 210 11 47 30 126 41 175 12 50 28 122 36 160 28 136 46 230 50
255 2 14 8 48 14 75 20 103 43 241 44 268 1 15 3 27 6 27 3 0 7 15 8 33 1 17
7 55 12 82 9 49 31 206 35 255 1 14 5 41 8 60 7 42 24 190 33 280 3 36 7 76 9
90 2 14 10 117 19 230 8 113 19 237 23 275 4 39 8 391 8 784 0 565 -3 715 -13
719 -6 2 -10 8 -7 12 7 11 -22 424 -33 470 -5 19 -5 46 -2 60 4 14 4 30 0 35
-4 6 -10 39 -13 75 -4 36 -13 117 -21 180 -8 63 -20 158 -26 210 -6 52 -14
102 -17 110 -3 8 -7 29 -9 45 -11 84 -41 265 -64 385 -6 30 -13 71 -16 90 -3
19 -8 37 -12 40 -4 3 -7 21 -7 40 1 19 -3 46 -8 60 -9 26 -38 159 -42 195 -1
11 -5 27 -7 35 -16 48 -38 153 -34 158 3 3 1 11 -6 19 -6 8 -12 24 -13 36 -1
12 -5 29 -8 37 -3 8 -8 26 -11 40 -21 104 -36 155 -45 158 -5 2 -7 10 -4 18 3
8 -2 36 -10 62 -8 26 -18 63 -22 82 -4 19 -11 40 -15 45 -5 6 -8 12 -9 15 -2
34 -16 92 -22 96 -5 3 -9 13 -9 22 0 15 -30 122 -50 177 -4 11 -17 54 -30 95
-12 41 -26 84 -30 95 -10 25 -38 111 -50 150 -18 62 -97 281 -130 360 -4 11
-21 55 -35 98 -15 42 -31 77 -34 77 -4 0 -8 12 -9 26 -1 14 -8 38 -16 52 -7
15 -18 38 -24 52 -5 14 -18 45 -28 70 -9 25 -28 70 -42 100 -13 30 -30 71 -37
90 -7 19 -24 61 -39 92 -14 31 -26 62 -26 67 0 6 -4 11 -10 11 -5 0 -10 5 -10
12 0 6 -9 32 -21 57 -11 25 -31 69 -44 96 -92 202 -330 670 -414 815 -21 36
-45 81 -54 101 -9 20 -23 42 -32 49 -8 7 -15 16 -15 21 0 4 -46 84 -102 178
-57 94 -110 184 -118 199 -24 42 -113 179 -237 365 -62 93 -113 170 -113 172
0 2 -9 14 -20 27 -11 12 -54 73 -97 133 -42 61 -80 112 -83 115 -3 3 -22 27
-41 54 -18 27 -44 61 -56 74 -13 14 -23 28 -23 33 0 4 -6 14 -13 21 -7 7 -39
47 -70 88 -32 41 -74 95 -95 119 -20 24 -41 50 -46 59 -5 8 -19 27 -32 41 -23
26 -57 67 -71 86 -12 15 -136 162 -178 210 -76 88 -123 141 -145 165 -14 15
-50 56 -80 91 -30 35 -74 82 -97 104 -24 23 -43 44 -43 47 0 7 -548 558 -556
558 -3 0 -32 26 -64 58 -32 31 -86 82 -120 112 -34 30 -79 71 -100 90 -45 41
-135 119 -162 140 -11 8 -34 29 -52 45 -18 17 -52 46 -76 65 -23 19 -61 51
-84 70 -55 46 -123 101 -148 120 -11 8 -28 23 -36 33 -9 9 -20 17 -25 17 -9 0
-27 14 -57 44 -11 11 -20 17 -20 13 0 -3 -13 7 -29 22 -17 16 -44 37 -60 47
-17 10 -31 22 -31 26 0 4 -4 8 -10 8 -9 0 -34 18 -64 46 -6 6 -24 19 -41 29
-16 11 -37 25 -45 32 -38 33 -78 63 -84 63 -4 0 -12 5 -19 10 -52 45 -75 61
-104 77 -18 10 -33 21 -33 25 0 5 -7 8 -15 8 -9 0 -18 7 -21 15 -4 8 -10 15
-15 15 -12 0 -73 42 -77 53 -2 4 -8 7 -14 7 -5 0 -20 8 -33 18 -44 34 -239
161 -305 200 -25 14 -51 32 -58 39 -7 7 -20 13 -28 13 -8 0 -14 4 -14 9 0 5
-13 14 -30 21 -16 7 -30 16 -30 21 0 5 -11 11 -25 15 -14 3 -25 10 -25 15 0 5
-9 9 -20 9 -11 0 -20 5 -20 10 0 6 -6 10 -13 10 -7 0 -23 9 -35 20 -12 11 -23
20 -26 20 -2 0 -44 23 -93 51 -48 29 -113 65 -143 82 -30 16 -81 45 -112 63
-32 18 -58 31 -58 28 0 -3 -7 2 -16 10 -8 9 -19 14 -24 11 -4 -3 -11 2 -14 10
-3 8 -9 14 -13 14 -10 -3 -46 12 -53 21 -3 3 -36 22 -75 40 -38 19 -92 47
-118 62 -26 16 -54 28 -61 28 -8 0 -19 6 -25 14 -7 8 -26 18 -42 21 -16 4 -29
11 -29 16 0 5 -5 9 -12 9 -7 0 -54 20 -105 45 -90 44 -127 60 -148 65 -5 1
-22 11 -37 21 -14 10 -31 19 -36 19 -6 0 -23 7 -39 15 -15 7 -48 23 -73 34
-107 47 -161 70 -163 70 -1 0 -33 13 -70 30 -38 17 -73 28 -78 25 -5 -3 -9 -2
-9 3 0 4 -12 13 -27 20 -54 23 -103 42 -108 42 -3 0 -19 7 -35 16 -16 8 -33
14 -37 13 -4 -1 -18 3 -29 10 -12 6 -24 8 -28 5 -3 -3 -6 -1 -6 5 0 7 -7 12
-15 12 -8 0 -29 6 -47 14 -18 8 -73 29 -123 47 -49 17 -104 38 -122 45 -17 8
-39 14 -48 14 -9 0 -29 6 -43 14 -28 15 -292 103 -327 109 -11 2 -31 8 -45 14
-14 6 -52 18 -85 28 -33 9 -78 23 -100 31 -23 8 -50 14 -61 14 -11 0 -24 4
-30 10 -5 5 -23 11 -39 14 -17 2 -37 6 -45 9 -47 17 -521 138 -595 152 -22 4
-44 10 -50 13 -5 3 -23 7 -40 8 -16 1 -57 8 -90 17 -33 8 -100 22 -150 32 -49
9 -119 23 -155 30 -36 8 -83 16 -105 18 -22 2 -45 6 -50 9 -6 3 -32 8 -60 12
-27 3 -59 8 -70 10 -68 12 -163 27 -335 51 -14 2 -54 7 -90 10 -36 4 -74 9
-85 12 -11 2 -67 8 -125 14 -58 5 -116 11 -130 14 -14 3 -86 9 -160 15 -74 6
-157 13 -185 16 -27 3 -126 9 -220 14 -93 5 -174 9 -180 10 -12 1 -135 1 -268
0 -31 -1 -62 2 -67 5 -6 3 -10 1 -10 -5 0 -6 -5 -8 -11 -5 -12 8 -129 12 -129
5 0 -3 -30 -4 -67 -3 -105 3 -123 4 -191 3 -34 -1 -67 2 -72 5 -6 3 -10 1 -10
-5 0 -6 -5 -8 -11 -5 -12 8 -129 12 -129 5z m12347 -12442 c-3 -8 -6 -5 -6 6
-1 11 2 17 5 13 3 -3 4 -12 1 -19z m0 -650 c-3 -8 -6 -5 -6 6 -1 11 2 17 5 13
3 -3 4 -12 1 -19z m-23820 -510 c-3 -8 -6 -5 -6 6 -1 11 2 17 5 13 3 -3 4 -12
1 -19z m36 -363 c-3 -9 -8 -14 -10 -11 -3 3 -2 9 2 15 9 16 15 13 8 -4z
m20727 -6789 c0 -2 -8 -10 -17 -17 -16 -13 -17 -12 -4 4 13 16 21 21 21 13z
m-8093 -3932 c-3 -3 -12 -4 -19 -1 -8 3 -5 6 6 6 11 1 17 -2 13 -5z m-1314
-11 c-7 -2 -19 -2 -25 0 -7 3 -2 5 12 5 14 0 19 -2 13 -5z m174 -9 c-3 -3 -12
-4 -19 -1 -8 3 -5 6 6 6 11 1 17 -2 13 -5z m756 -1 c-7 -2 -19 -2 -25 0 -7 3
-2 5 12 5 14 0 19 -2 13 -5z"/>
</g>
</svg>
